<svg width="160" height="50" viewBox="0 0 160 50" fill="none" xmlns="http://www.w3.org/2000/svg">
<g clip-path="url(#clip0_2_38)">
<path d="M78.8709 36.192C77.2069 36.192 75.6069 35.9253 74.0709 35.392C72.5562 34.8373 71.3829 34.1333 70.5509 33.28L71.4789 31.456C72.2682 32.224 73.3242 32.8747 74.6469 33.408C75.9909 33.92 77.3989 34.176 78.8709 34.176C80.2789 34.176 81.4202 34.0053 82.2949 33.664C83.1909 33.3013 83.8415 32.8213 84.2469 32.224C84.6735 31.6267 84.8869 30.9653 84.8869 30.24C84.8869 29.3653 84.6309 28.6613 84.1189 28.128C83.6282 27.5947 82.9775 27.1787 82.1669 26.88C81.3562 26.56 80.4602 26.2827 79.4789 26.048C78.4975 25.8133 77.5162 25.568 76.5349 25.312C75.5535 25.0347 74.6469 24.672 73.8149 24.224C73.0042 23.776 72.3429 23.1893 71.8309 22.464C71.3402 21.7173 71.0949 20.7467 71.0949 19.552C71.0949 18.4427 71.3829 17.4293 71.9589 16.512C72.5562 15.5733 73.4629 14.8267 74.6789 14.272C75.8949 13.696 77.4522 13.408 79.3509 13.408C80.6095 13.408 81.8575 13.5893 83.0949 13.952C84.3322 14.2933 85.3989 14.7733 86.2949 15.392L85.4949 17.28C84.5349 16.64 83.5109 16.1707 82.4229 15.872C81.3562 15.5733 80.3215 15.424 79.3189 15.424C77.9749 15.424 76.8655 15.6053 75.9909 15.968C75.1162 16.3307 74.4655 16.8213 74.0389 17.44C73.6335 18.0373 73.4309 18.72 73.4309 19.488C73.4309 20.3627 73.6762 21.0667 74.1669 21.6C74.6789 22.1333 75.3402 22.5493 76.1509 22.848C76.9829 23.1467 77.8895 23.4133 78.8709 23.648C79.8522 23.8827 80.8229 24.1387 81.7829 24.416C82.7642 24.6933 83.6602 25.056 84.4709 25.504C85.3029 25.9307 85.9642 26.5067 86.4549 27.232C86.9669 27.9573 87.2229 28.9067 87.2229 30.08C87.2229 31.168 86.9242 32.1813 86.3269 33.12C85.7295 34.0373 84.8122 34.784 83.5749 35.36C82.3589 35.9147 80.7909 36.192 78.8709 36.192ZM97.2144 36.16C95.6357 36.16 94.4197 35.7333 93.5664 34.88C92.713 34.0267 92.2864 32.8213 92.2864 31.264V15.488H94.5584V31.136C94.5584 32.1173 94.8037 32.8747 95.2944 33.408C95.8064 33.9413 96.5317 34.208 97.4704 34.208C98.473 34.208 99.305 33.92 99.9664 33.344L100.766 34.976C100.318 35.3813 99.7744 35.68 99.1344 35.872C98.5157 36.064 97.8757 36.16 97.2144 36.16ZM89.2784 21.088V19.2H99.6784V21.088H89.2784ZM111.157 36.16C109.535 36.16 108.074 35.7973 106.773 35.072C105.493 34.3253 104.479 33.312 103.733 32.032C102.986 30.7307 102.613 29.248 102.613 27.584C102.613 25.8987 102.986 24.416 103.733 23.136C104.479 21.856 105.493 20.8533 106.773 20.128C108.053 19.4027 109.514 19.04 111.157 19.04C112.821 19.04 114.293 19.4027 115.573 20.128C116.874 20.8533 117.887 21.856 118.613 23.136C119.359 24.416 119.733 25.8987 119.733 27.584C119.733 29.248 119.359 30.7307 118.613 32.032C117.887 33.312 116.874 34.3253 115.573 35.072C114.271 35.7973 112.799 36.16 111.157 36.16ZM111.157 34.144C112.373 34.144 113.45 33.8773 114.389 33.344C115.327 32.7893 116.063 32.0213 116.597 31.04C117.151 30.0373 117.429 28.8853 117.429 27.584C117.429 26.2613 117.151 25.1093 116.597 24.128C116.063 23.1467 115.327 22.3893 114.389 21.856C113.45 21.3013 112.383 21.024 111.189 21.024C109.994 21.024 108.927 21.3013 107.989 21.856C107.05 22.3893 106.303 23.1467 105.749 24.128C105.194 25.1093 104.917 26.2613 104.917 27.584C104.917 28.8853 105.194 30.0373 105.749 31.04C106.303 32.0213 107.05 32.7893 107.989 33.344C108.927 33.8773 109.983 34.144 111.157 34.144ZM124.371 36V19.2H126.547V23.776L126.323 22.976C126.792 21.696 127.582 20.7253 128.691 20.064C129.8 19.3813 131.176 19.04 132.819 19.04V21.248C132.734 21.248 132.648 21.248 132.563 21.248C132.478 21.2267 132.392 21.216 132.307 21.216C130.536 21.216 129.15 21.76 128.147 22.848C127.144 23.9147 126.643 25.44 126.643 27.424V36H124.371ZM143.945 36.16C142.195 36.16 140.659 35.7973 139.337 35.072C138.014 34.3253 136.979 33.312 136.233 32.032C135.486 30.7307 135.113 29.248 135.113 27.584C135.113 25.92 135.465 24.448 136.169 23.168C136.894 21.888 137.875 20.8853 139.113 20.16C140.371 19.4133 141.779 19.04 143.337 19.04C144.915 19.04 146.313 19.4027 147.529 20.128C148.766 20.832 149.737 21.8347 150.441 23.136C151.145 24.416 151.497 25.8987 151.497 27.584C151.497 27.6907 151.486 27.808 151.465 27.936C151.465 28.0427 151.465 28.16 151.465 28.288H136.841V26.592H150.249L149.353 27.264C149.353 26.048 149.086 24.9707 148.553 24.032C148.041 23.072 147.337 22.3253 146.441 21.792C145.545 21.2587 144.51 20.992 143.337 20.992C142.185 20.992 141.15 21.2587 140.233 21.792C139.315 22.3253 138.601 23.072 138.089 24.032C137.577 24.992 137.321 26.0907 137.321 27.328V27.68C137.321 28.96 137.598 30.0907 138.153 31.072C138.729 32.032 139.518 32.7893 140.521 33.344C141.545 33.8773 142.707 34.144 144.009 34.144C145.033 34.144 145.982 33.9627 146.857 33.6C147.753 33.2373 148.521 32.6827 149.161 31.936L150.441 33.408C149.694 34.304 148.755 34.9867 147.625 35.456C146.515 35.9253 145.289 36.16 143.945 36.16Z" fill="black"/>
<g clip-path="url(#clip1_2_38)">
<circle cx="25" cy="25" r="25" fill="#1677FF"/>
<path d="M31.9355 22.671L34.877 25.2871C37.5515 27.6659 38.8889 28.8554 38.8889 30.3816C38.8889 31.9078 37.5515 33.0973 34.877 35.4762L31.9355 38.0923" stroke="white" stroke-width="2" stroke-linecap="round"/>
<path d="M18.0645 12.0981L15.123 14.7142C12.4484 17.0931 11.1111 18.2825 11.1111 19.8087C11.1111 21.335 12.4484 22.5245 15.123 24.9033L18.0645 27.5194" stroke="white" stroke-width="2" stroke-linecap="round"/>
<path d="M28.4448 12.39L25.8333 22.5294M24.5 27L21.5551 37.8005" stroke="white" stroke-width="2" stroke-linecap="round"/>
</g>
</g>
<defs>
<clipPath id="clip0_2_38">
<rect width="160" height="50" fill="white"/>
</clipPath>
<clipPath id="clip1_2_38">
<rect width="50" height="50" fill="white"/>
</clipPath>
</defs>
</svg>
